<svg xmlns="http://www.w3.org/2000/svg">
  <symbol id="add" viewBox="0 0 24 24">
    <path fill="currentColor"
      d="M18 20v-3h-3v-2h3v-3h2v3h3v2h-3v3zM3 21q-.825 0-1.412-.587T1 19V5q0-.825.588-1.412T3 3h14q.825 0 1.413.588T19 5v5h-2V8H3v11h13v2zM3 6h14V5H3zm0 0V5z" />
  </symbol>
  <symbol id="edit" viewBox="0 0 24 24">
    <path fill="currentColor" d="M14 22v-3.075l5.525-5.5q.225-.225.5-.325t.55-.1q.3 0 .575.113t.5.337l.925.925q.2.225.313.5t.112.55q0 .275-.1.563t-.325.512l-5.5 5.5zm7.5-6.575-.925-.925zm-6 5.075h.95l3.025-3.05-.45-.475-.475-.45-3.05 3.025zM6 22q-.825 0-1.412-.587T4 20V4q0-.825.588-1.412T6 2h8l6 6v3h-2V9h-5V4H6v16h6v2zm13.025-5.025-.475-.45.925.925z"/>
  </symbol>
  <symbol id="delete" viewBox="0 0 24 24">
    <path fill="currentColor" d="M5 21V6H4V4h5V3h6v1h5v2h-1v15zm2-2h10V6H7zm2-2h2V8H9zm4 0h2V8h-2zM7 6v13z"/>
  </symbol>
  <symbol viewBox="0 0 24 24" id="save"><path fill="currentColor" d="M14 12.8c-.5-.49-1.22-.8-2-.8a2.996 2.996 0 0 0-1 5.82a6.034 6.034 0 0 1 3-5.02M11.09 19H5V5h11.17L19 7.83v4.52c.75.26 1.42.65 2 1.19V7l-4-4H5a2 2 0 0 0-2 2v14a2 2 0 0 0 2 2h6.81c-.35-.61-.6-1.28-.72-2M6 10h9V6H6zm9.75 11L13 18l1.16-1.16l1.59 1.59l3.59-3.59l1.16 1.41z"></path></symbol>
</svg>